<?xml version="1.0" standalone="no"?>
<!DOCTYPE svg PUBLIC "-//W3C//DTD SVG 20010904//EN"
 "http://www.w3.org/TR/2001/REC-SVG-20010904/DTD/svg10.dtd">
<svg version="1.0" xmlns="http://www.w3.org/2000/svg"
 width="492.000000pt" height="333.000000pt" viewBox="0 0 492.000000 333.000000"
 preserveAspectRatio="xMidYMid meet">

<g transform="translate(0.000000,333.000000) scale(0.100000,-0.100000)"
fill="#000000" stroke="none">
<path d="M1227 2973 c-15 -14 -6 -23 23 -23 64 0 136 -51 159 -113 7 -19 11
-217 11 -588 l0 -559 85 0 85 0 2 578 3 577 24 34 c28 38 91 70 139 71 22 0
32 4 30 13 -4 9 -70 13 -280 15 -151 1 -277 -1 -281 -5z"/>
<path d="M2028 2839 c-10 -5 -18 -19 -18 -29 0 -17 7 -20 45 -20 49 0 55 10
25 40 -23 23 -28 24 -52 9z"/>
<path d="M2738 2795 c-26 -7 -70 -27 -98 -44 -28 -17 -81 -38 -117 -47 -107
-25 -120 -35 -128 -98 -8 -64 -3 -76 32 -76 14 0 39 -12 56 -26 35 -30 76 -27
112 6 20 18 36 20 199 20 177 0 178 0 209 -26 35 -30 81 -28 108 5 9 11 27 21
40 23 24 3 24 5 20 88 -3 72 -7 90 -29 120 -15 19 -28 37 -30 40 -4 6 -228 29
-282 29 -25 -1 -66 -7 -92 -14z m142 -45 c0 -24 -5 -42 -12 -44 -7 -3 -61 -7
-121 -11 -92 -5 -108 -3 -113 10 -13 33 99 84 189 84 l57 1 0 -40z m158 24
c42 -5 43 -7 40 -37 l-3 -32 -85 0 -85 0 -3 42 -3 43 48 -6 c26 -3 67 -7 91
-10z m-462 -189 c15 -23 15 -27 0 -50 -21 -32 -59 -33 -80 -3 -20 28 -20 43 0
62 24 24 61 20 80 -9z m512 13 c7 -7 12 -24 12 -38 0 -48 -45 -67 -82 -33 -20
18 -23 36 -8 64 12 22 59 26 78 7z"/>
<path d="M1933 2772 c-13 -8 -72 -132 -109 -230 -17 -44 -24 -83 -24 -132 0
-56 -3 -70 -15 -70 -11 0 -15 -11 -15 -40 l0 -40 79 0 79 0 6 -30 c3 -17 17
-41 31 -54 61 -56 153 -36 190 42 l20 42 372 0 373 0 0 50 0 50 -335 0 -335 0
0 183 c0 126 -4 190 -13 207 -12 25 -14 25 -152 27 -77 2 -145 -1 -152 -5z
m227 -61 c11 -21 14 -120 4 -145 -9 -23 -274 -24 -274 -2 0 8 15 49 34 90 l35
76 95 0 c84 0 97 -2 106 -19z m-70 -401 c40 -40 14 -110 -41 -110 -63 0 -91
71 -43 109 33 26 58 27 84 1z"/>
<path d="M2287 2763 c-4 -3 -7 -87 -7 -185 l0 -178 434 0 433 0 159 -59 c200
-74 204 -75 204 -62 0 6 -73 48 -162 93 l-163 83 -415 5 -415 5 -15 140 c-17
155 -27 185 -53 158z"/>
<path d="M4220 2610 c-105 -15 -196 -41 -280 -82 -72 -35 -100 -56 -185 -142
-65 -66 -119 -132 -154 -190 -46 -74 -146 -290 -214 -463 l-17 -43 78 0 77 0
99 215 c54 119 124 256 155 307 68 111 179 231 255 277 70 42 200 87 277 96
38 5 59 11 56 19 -4 13 -73 17 -147 6z"/>
<path d="M3031 2357 c-88 -45 -84 -166 7 -204 129 -54 216 138 91 203 -34 17
-66 18 -98 1z m87 -57 c43 -40 16 -100 -44 -100 -37 0 -54 21 -54 64 0 26 32
56 60 56 9 0 26 -9 38 -20z"/>
<path d="M1857 1983 c-15 -14 -5 -23 26 -23 47 0 127 -41 165 -85 19 -21 49
-71 67 -111 l34 -74 104 0 105 0 -30 77 c-33 85 -32 122 4 160 12 13 39 26 60
29 23 4 38 12 38 20 0 12 -50 14 -283 14 -156 0 -287 -3 -290 -7z"/>
<path d="M200 1635 c-8 -9 -8 -15 -2 -15 12 0 26 19 19 26 -2 2 -10 -2 -17
-11z"/>
<path d="M160 1555 l0 -55 38 1 c30 2 32 3 10 6 -19 3 -28 10 -28 23 0 13 9
20 28 23 l27 4 -27 2 c-21 1 -28 6 -28 20 0 14 8 21 28 24 22 3 20 4 -10 6
l-38 1 0 -55z"/>
<path d="M370 1555 c0 -30 5 -55 10 -55 6 0 10 8 10 19 0 12 9 20 29 24 59 12
42 67 -21 67 -27 0 -28 -1 -28 -55z m70 20 c0 -16 -38 -27 -46 -14 -3 6 -3 16
0 24 6 17 46 8 46 -10z"/>
<path d="M612 1565 c-25 -52 -29 -76 -10 -57 16 16 65 15 71 0 2 -7 7 -10 11
-7 7 7 -33 109 -43 109 -4 0 -17 -20 -29 -45z m38 -5 c9 -17 8 -20 -9 -20 -14
0 -18 5 -14 20 3 11 7 20 9 20 2 0 8 -9 14 -20z"/>
<path d="M820 1602 c0 -27 34 -102 46 -102 8 0 14 2 14 5 0 2 9 27 20 55 11
27 16 50 11 50 -5 0 -17 -21 -28 -47 l-19 -47 -13 47 c-8 26 -18 47 -22 47 -5
0 -9 -4 -9 -8z"/>
<path d="M1050 1555 c0 -30 5 -55 10 -55 6 0 10 25 10 55 0 30 -4 55 -10 55
-5 0 -10 -25 -10 -55z"/>
<path d="M1232 1598 c-20 -20 -13 -39 18 -49 42 -15 38 -33 -6 -26 -30 5 -34
4 -24 -8 16 -19 54 -19 70 0 15 17 6 33 -26 45 -36 14 -31 34 7 26 27 -5 30
-4 19 9 -15 18 -42 19 -58 3z"/>
<path d="M1438 1600 c18 -8 22 -17 22 -55 0 -25 5 -45 10 -45 6 0 10 22 10 49
0 43 3 50 23 54 12 2 -3 5 -33 5 -42 1 -50 -1 -32 -8z"/>
<path d="M1650 1555 l0 -55 38 1 c30 2 32 3 10 6 -19 3 -28 10 -28 23 0 13 9
20 28 23 l27 4 -27 2 c-21 1 -28 6 -28 20 0 14 8 21 28 24 22 3 20 4 -10 6
l-38 1 0 -55z"/>
<path d="M2381 1553 c1 -40 3 -50 8 -33 4 14 17 27 31 31 25 7 25 7 -3 8 -36
1 -34 32 3 42 23 6 22 7 -7 8 l-33 1 1 -57z"/>
<path d="M2580 1555 l0 -55 38 1 c30 2 32 3 10 6 -19 3 -28 10 -28 23 0 13 9
20 28 23 l27 4 -27 2 c-21 1 -28 6 -28 20 0 14 8 21 28 24 22 3 20 4 -10 6
l-38 1 0 -55z"/>
<path d="M2801 1553 c1 -32 4 -48 6 -35 5 27 15 28 38 2 10 -11 25 -20 34 -20
12 0 9 6 -9 20 -20 15 -23 21 -12 31 28 29 8 59 -39 59 -17 0 -19 -7 -18 -57z
m54 16 c-9 -14 -45 -11 -45 4 0 8 3 17 6 20 10 9 46 -12 39 -24z"/>
<path d="M3020 1555 c0 -30 5 -55 10 -55 6 0 10 10 10 22 l0 21 23 -21 c25
-23 47 -29 47 -12 0 6 -6 10 -14 10 -23 0 -29 19 -12 36 20 19 20 19 0 38 -8
9 -26 16 -40 16 -22 0 -24 -3 -24 -55z m57 21 c-7 -21 -37 -19 -37 2 0 15 5
19 20 15 12 -3 19 -11 17 -17z"/>
<path d="M3254 1557 c-12 -28 -20 -54 -17 -57 3 -3 8 1 10 8 6 15 55 16 71 0
6 -6 13 -10 16 -7 6 6 -42 109 -51 109 -4 0 -18 -24 -29 -53z m46 -9 c0 -5 -7
-8 -15 -8 -17 0 -18 2 -9 25 5 13 8 14 15 3 5 -7 9 -16 9 -20z"/>
<path d="M3470 1555 c0 -30 5 -55 10 -55 6 0 10 25 10 55 0 30 -4 55 -10 55
-5 0 -10 -25 -10 -55z"/>
<path d="M3640 1555 l0 -55 35 0 c19 0 35 5 35 10 0 6 -11 10 -25 10 -23 0
-25 4 -25 45 0 25 -4 45 -10 45 -5 0 -10 -25 -10 -55z"/>
<path d="M3850 1555 c0 -54 0 -55 30 -55 17 0 30 5 30 10 0 6 -9 10 -20 10
-17 0 -20 7 -20 45 0 25 -4 45 -10 45 -5 0 -10 -25 -10 -55z"/>
<path d="M4050 1555 l0 -55 38 1 c30 2 32 3 10 6 -19 3 -28 10 -28 23 0 13 9
20 28 23 l27 4 -27 2 c-21 1 -28 6 -28 20 0 14 8 21 28 24 22 3 20 4 -10 6
l-38 1 0 -55z"/>
<path d="M4260 1571 c0 -43 20 -71 50 -71 30 0 50 28 50 71 0 53 -18 50 -22
-3 -3 -38 -6 -43 -28 -43 -22 0 -25 5 -28 43 -4 53 -22 56 -22 3z"/>
<path d="M4511 1553 c1 -32 4 -48 6 -35 5 27 15 28 38 2 10 -11 25 -20 34 -20
12 0 9 6 -9 20 -20 15 -23 21 -12 31 28 29 8 59 -39 59 -17 0 -19 -7 -18 -57z
m54 16 c-9 -14 -45 -11 -45 4 0 8 3 17 6 20 10 9 46 -12 39 -24z"/>
<path d="M2038 1533 c6 -2 18 -2 25 0 6 3 1 5 -13 5 -14 0 -19 -2 -12 -5z"/>
<path d="M1417 1323 c-16 -253 -109 -423 -265 -484 -66 -26 -190 -36 -247 -20
-30 8 -41 8 -47 -2 -11 -17 0 -24 67 -41 170 -45 380 9 498 128 91 90 150 243
163 421 l7 95 -85 0 -85 0 -6 -97z"/>
<path d="M2274 1403 c4 -10 129 -296 278 -635 251 -572 298 -667 298 -598 0
35 40 130 283 660 131 289 246 540 253 558 l14 32 -72 0 -73 0 -200 -479
c-110 -264 -202 -478 -206 -476 -3 2 -90 218 -194 479 l-188 476 -100 0 c-90
0 -99 -2 -93 -17z"/>
</g>
</svg>
